<?xml version="1.0" standalone="no"?>
<!DOCTYPE svg PUBLIC "-//W3C//DTD SVG 20010904//EN"
 "http://www.w3.org/TR/2001/REC-SVG-20010904/DTD/svg10.dtd">
<svg version="1.0" xmlns="http://www.w3.org/2000/svg"
 width="254.000000pt" height="254.000000pt" viewBox="0 0 254.000000 254.000000"
 preserveAspectRatio="xMidYMid meet">
<metadata>
Created by potrace 1.14, written by Peter Selinger 2001-2017
</metadata>
<g transform="translate(0.000000,254.000000) scale(0.100000,-0.100000)"
fill="#000000" stroke="none">
<path d="M2005 1862 c-155 -16 -289 -107 -334 -227 -31 -82 -32 -193 -3 -258
41 -93 115 -140 315 -204 174 -54 196 -64 222 -95 43 -51 15 -111 -58 -128
-90 -20 -258 19 -370 86 -32 19 -62 32 -67 29 -7 -4 -110 -210 -110 -220 0 -9
167 -83 220 -98 258 -72 483 -43 603 79 52 52 80 125 84 216 3 89 -18 155 -66
210 -52 58 -129 98 -276 142 -181 55 -221 73 -238 107 -18 38 -12 71 19 100
18 16 39 23 92 27 81 5 156 -13 251 -63 35 -19 67 -32 72 -30 9 6 109 192 109
204 0 13 -151 79 -234 101 -72 20 -167 29 -231 22z"/>
<path d="M14 1793 c8 -21 35 -90 59 -153 25 -63 62 -158 82 -210 20 -52 53
-135 72 -185 19 -49 51 -130 70 -180 19 -49 55 -142 79 -205 25 -63 50 -127
56 -143 l11 -27 107 1 c59 0 111 4 116 7 6 4 48 99 94 212 46 113 86 208 90
212 3 4 24 -35 45 -88 22 -52 63 -150 91 -217 l51 -122 112 -3 112 -2 15 37
c9 21 22 52 29 68 32 74 395 1014 395 1024 0 7 -45 11 -139 11 l-138 0 -16
-42 c-9 -24 -52 -149 -95 -278 -121 -355 -172 -503 -175 -506 -1 -2 -28 64
-59 146 l-57 149 70 193 c39 106 81 221 95 256 13 34 24 66 24 71 0 4 -54 8
-120 7 l-120 0 -58 -181 -58 -180 -60 180 -60 180 -109 1 c-120 1 -139 -2
-128 -20 4 -6 8 -15 10 -21 1 -5 41 -117 89 -248 l87 -237 -48 -133 c-61 -168
-61 -168 -73 -137 -13 32 -24 62 -28 75 -1 6 -44 129 -94 275 -50 146 -106
307 -123 358 l-32 92 -142 0 -143 0 14 -37z"/>
</g>
</svg>
